<svg xmlns="http://www.w3.org/2000/svg" xmlns:svg="http://www.w3.org/2000/svg" xmlns:xlink="http://www.w3.org/1999/xlink" id="svg2535" width="836" height="590" version="1.0"><g id="g2537" transform="translate(12,16)"><g id="g1720"><g style="fill:#a0d5fd;fill-opacity:1" id="g2933" transform="translate(-218,-109)"><path style="fill:#a0d5fd;fill-opacity:1;stroke:#000;stroke-width:2" id="rect2987" d="M 410,111 L 410,152 M 346,152 L 346,111 M 536,152 L 536,111 M 663,152 L 663,111 M 600,111 L 600,152 M 473,152 L 473,111 M 283,152 L 283,111 M 727,152 L 219,152 L 219,111 L 727,111 L 727,152 z"/></g><use id="use2338" width="850" height="550" x="0" y="0" transform="translate(0,496)" xlink:href="#g2933"/><g id="g1409" transform="translate(-42,-158)"><use id="use2476" width="850" height="550" x="0" y="0" transform="matrix(1,0,0,0.5425481,0,380)" xlink:href="#rect2873"/><use id="use2474" width="850" height="550" x="0" y="0" transform="translate(0,173.91045)" xlink:href="#rect2873"/><use id="use2472" width="850" height="550" x="0" y="0" transform="matrix(1,0,0,0.5582712,0,199.39186)" xlink:href="#rect2873"/><g id="g4860"><path style="fill:#000;fill-opacity:1;fill-rule:evenodd;stroke:none;stroke-width:1.47116435;stroke-linecap:butt;stroke-linejoin:miter;stroke-miterlimit:4;stroke-opacity:1" id="path4985" d="M 712,315 L 712,580 L 75,630 L 75,630 L 76,656 L 76,631 L 713,582 L 714,582 L 714,315 L 712,315 z"/><path style="fill-rule:evenodd;stroke:#000;stroke-width:.79999995;marker-start:none" id="path4866" d="M 75,641 L 69,635 L 75,655 L 81,635 L 75,641 z"/></g><g id="g2798"><path style="fill:#000;fill-opacity:1;fill-rule:evenodd;stroke:none;stroke-width:.8433435;stroke-linecap:butt;stroke-linejoin:miter;stroke-miterlimit:4;stroke-opacity:1" id="path7897" d="M 789,255 L 789,278 L 790,278 L 790,255 L 789,255 z"/><path style="fill-rule:evenodd;stroke:#000;stroke-width:.80000001;marker-start:none" id="path2804" d="M 789,269 L 786,266 L 789,278 L 793,266 L 789,269 z"/></g><g id="g7915" transform="matrix(0.562229,0,0,0.562229,-293.07998,867.52765)"><text style="font-size:34.08696365px;font-style:normal;font-variant:normal;font-weight:400;font-stretch:normal;writing-mode:lr-tb;text-anchor:start;fill:#000;fill-opacity:1;stroke:none;stroke-width:1px;stroke-linecap:butt;stroke-linejoin:miter;stroke-opacity:1;font-family:Bitstream Vera Sans" id="text7917" x="2001.507" y="-1053.596" transform="scale(0.952546,1.049818)" xml:space="preserve"><tspan id="tspan7919" x="2001.507" y="-1053.596">W</tspan></text><text style="font-size:20px;font-style:normal;font-weight:400;fill:#000;fill-opacity:1;stroke:none;stroke-width:1px;stroke-linecap:butt;stroke-linejoin:miter;stroke-opacity:1;font-family:Bitstream Vera Sans" id="text7921" x="1936.998" y="-1100.44" xml:space="preserve"><tspan id="tspan7923" x="1936.998" y="-1100.44">t</tspan></text></g><g id="g3222" transform="translate(-166.5774,-21.83296)"><g id="g2790"><path style="fill:#000;fill-opacity:1;fill-rule:evenodd;stroke:none;stroke-width:.8433435;stroke-linecap:butt;stroke-linejoin:miter;stroke-miterlimit:4;stroke-opacity:1" id="path6837" d="M 975,320 L 975,321 L 998,321 L 998,320 L 975,320 z"/><path style="fill-rule:evenodd;stroke:#000;stroke-width:.80000001;marker-start:none" id="path2796" d="M 984,320 L 987,317 L 976,320 L 987,324 L 984,320 z"/></g><g id="g7929" transform="matrix(0.562229,0,0,0.562229,-79.340156,888.90616)"><text style="font-size:34.08696365px;font-style:normal;font-variant:normal;font-weight:400;font-stretch:normal;writing-mode:lr-tb;text-anchor:start;fill:#000;fill-opacity:1;stroke:none;stroke-width:1px;stroke-linecap:butt;stroke-linejoin:miter;stroke-opacity:1;font-family:Bitstream Vera Sans" id="text7899" x="2022.217" y="-949.463" transform="scale(0.952546,1.049818)" xml:space="preserve"><tspan id="tspan7903" x="2022.217" y="-949.463">K</tspan></text><text style="font-size:20px;font-style:normal;font-weight:400;fill:#000;fill-opacity:1;stroke:none;stroke-width:1px;stroke-linecap:butt;stroke-linejoin:miter;stroke-opacity:1;font-family:Bitstream Vera Sans" id="text7905" x="1950.971" y="-990.298" xml:space="preserve"><tspan id="tspan7907" x="1950.971" y="-990.298">t</tspan></text></g></g><rect style="fill:#00f;fill-opacity:.75;fill-rule:evenodd;stroke:#000;stroke-width:1px;stroke-linecap:butt;stroke-linejoin:miter;stroke-opacity:1" id="rect2873" width="59.113" height="70.279" x="596.83" y="266.654"/><g id="g2838"><path style="fill:#000;fill-opacity:1;fill-rule:evenodd;stroke:none;stroke-width:.8984217;stroke-linecap:butt;stroke-linejoin:miter;stroke-miterlimit:4;stroke-opacity:1" id="path2877" d="M 330,278 L 330,279 L 593,279 L 593,278 L 330,278 z"/><path style="fill-rule:evenodd;stroke:#000;stroke-width:.80000001;marker-start:none" id="path2844" d="M 587,279 L 583,282 L 595,279 L 583,275 L 587,279 z"/><use id="use4823" width="850" height="550" x="0" y="0" transform="matrix(-1,0,0,1,882.29293,132.81697)" xlink:href="#path2844"/><use id="use4826" width="850" height="550" x="0" y="0" transform="translate(-1.5513039e-8,21.921248)" xlink:href="#path2844"/><use id="use4828" width="850" height="550" x="0" y="0" transform="translate(-1.5513038e-8,43.804728)" xlink:href="#path2844"/><use id="use4830" width="850" height="550" x="0" y="0" transform="translate(-1.5513039e-8,87.942889)" xlink:href="#path2844"/><use id="use4832" width="850" height="550" x="0" y="0" transform="translate(-1.5513039e-8,199.8702)" xlink:href="#path2844"/><use id="use4834" width="850" height="550" x="0" y="0" transform="translate(-1.5513039e-8,177.98408)" xlink:href="#path2844"/><use id="use4836" width="850" height="550" x="0" y="0" transform="translate(-1.5513038e-8,221.93303)" xlink:href="#path2844"/><use id="use4838" width="850" height="550" x="0" y="0" transform="translate(-1.5513038e-8,266.52022)" xlink:href="#path2844"/></g><path style="fill:none;fill-opacity:.75;fill-rule:evenodd;stroke:#000;stroke-width:.90691435;stroke-linecap:butt;stroke-linejoin:miter;marker-end:none;stroke-miterlimit:4;stroke-opacity:1" id="path2881" d="M 394,300 L 594,300"/><path style="fill:none;fill-opacity:.75;fill-rule:evenodd;stroke:#000;stroke-width:.93815637;stroke-linecap:butt;stroke-linejoin:miter;marker-end:none;stroke-miterlimit:4;stroke-opacity:1" id="path2883" d="M 457,323 L 592,322"/><g id="g2774"><path style="fill:#000;fill-opacity:1;fill-rule:evenodd;stroke:none;stroke-width:.89320505;stroke-linecap:butt;stroke-linejoin:miter;stroke-miterlimit:4;stroke-opacity:1" id="path3041" d="M 655,299 L 655,300 L 691,300 L 691,299 L 655,299 z"/><path style="fill-rule:evenodd;stroke:#000;stroke-width:.80000007;marker-start:none" id="path2780" d="M 682,300 L 679,303 L 691,300 L 679,296 L 682,300 z"/></g><path style="fill:none;fill-opacity:.75;fill-rule:evenodd;stroke:#000;stroke-width:.90666693;stroke-linecap:butt;stroke-linejoin:miter;marker-end:none;stroke-miterlimit:4;stroke-opacity:1" id="path3193" d="M 329,367 L 595,367"/><g id="g2806"><path style="fill:#000;fill-opacity:1;fill-rule:evenodd;stroke:none;stroke-width:.60585862;stroke-linecap:butt;stroke-linejoin:miter;stroke-miterlimit:4;stroke-opacity:1" id="path3202" d="M 530,202 L 530,203 L 711,280 L 711,279 L 530,202 z"/><path style="fill-rule:evenodd;stroke:#000;stroke-width:.80000001;marker-start:none" id="path2812" d="M 706,278 L 702,279 L 711,280 L 704,274 L 706,278 z"/></g><g id="g4840"><path style="fill:#000;fill-opacity:1;fill-rule:evenodd;stroke:none;stroke-width:1.38899589;stroke-linecap:butt;stroke-linejoin:miter;stroke-miterlimit:4;stroke-opacity:1" id="path1431" d="M 266,201 L 266,577 L 266,577 L 266,577 L 331,655 L 332,654 L 268,577 L 267,201 L 266,201 z"/><path style="fill-rule:evenodd;stroke:#000;stroke-width:.80000001;marker-start:none" id="path4846" d="M 323,644 L 315,643 L 332,654 L 324,636 L 323,644 z"/></g><path style="fill:none;fill-opacity:1;fill-rule:nonzero;stroke:red;stroke-width:1.68668795;stroke-linecap:square;stroke-linejoin:miter;marker:none;marker-start:none;marker-mid:none;marker-end:none;stroke-miterlimit:4;stroke-dashoffset:0;stroke-opacity:1;visibility:visible;display:inline;overflow:visible" id="path1439" d="M 284,429 L 284,393 L 249,393 L 249,429 L 284,429 z M 249,411 L 284,411 M 267,394 L 267,429"/><path style="fill:none;fill-opacity:.75;fill-rule:evenodd;stroke:#000;stroke-width:1.12445748;stroke-linecap:butt;stroke-linejoin:miter;marker-end:none;stroke-miterlimit:4;stroke-opacity:1" id="path1443" d="M 714,412 L 289,411"/><path style="fill:none;fill-opacity:.75;fill-rule:evenodd;stroke:#000;stroke-width:.8984217;stroke-linecap:butt;stroke-linejoin:miter;marker-end:none;stroke-miterlimit:4;stroke-opacity:1" id="path1455" d="M 74,457 L 591,457"/><path style="fill:none;fill-opacity:.75;fill-rule:evenodd;stroke:#000;stroke-width:.90691435;stroke-linecap:butt;stroke-linejoin:miter;marker-end:none;stroke-miterlimit:4;stroke-opacity:1" id="path1457" d="M 138,478 L 594,479"/><path style="fill:none;fill-opacity:.75;fill-rule:evenodd;stroke:#000;stroke-width:.93815637;stroke-linecap:butt;stroke-linejoin:miter;marker-end:none;stroke-miterlimit:4;stroke-opacity:1" id="path1459" d="M 203,501 L 593,501"/><path style="fill:none;fill-opacity:.75;fill-rule:evenodd;stroke:#000;stroke-width:.90666693;stroke-linecap:butt;stroke-linejoin:miter;marker-end:none;stroke-miterlimit:4;stroke-opacity:1" id="path1465" d="M 73,545 L 590,545"/><text style="font-size:28px;font-style:normal;font-variant:normal;font-weight:400;font-stretch:normal;text-align:start;line-height:125%;writing-mode:lr-tb;text-anchor:start;fill:#000;fill-opacity:1;stroke:none;stroke-width:1px;stroke-linecap:butt;stroke-linejoin:miter;stroke-opacity:1;font-family:sans" id="text1469" x="608.612" y="308.387" xml:space="preserve"><tspan style="font-size:28px;font-style:normal;font-variant:normal;font-weight:400;font-stretch:normal;text-align:start;line-height:125%;writing-mode:lr-tb;text-anchor:start;font-family:sans" id="tspan1471" x="608.612" y="308.387">Ch</tspan></text><text style="font-size:28px;font-style:normal;font-variant:normal;font-weight:400;font-stretch:normal;text-align:start;line-height:125%;writing-mode:lr-tb;text-anchor:start;fill:#000;fill-opacity:1;stroke:none;stroke-width:1px;stroke-linecap:butt;stroke-linejoin:miter;stroke-opacity:1;font-family:sans" id="text1473" x="604.287" y="485.834" xml:space="preserve"><tspan style="font-size:28px;font-style:normal;font-variant:normal;font-weight:400;font-stretch:normal;text-align:start;line-height:125%;writing-mode:lr-tb;text-anchor:start;font-family:sans" id="tspan1475" x="604.287" y="485.834">Ma</tspan></text><text style="font-size:28px;font-style:normal;font-variant:normal;font-weight:400;font-stretch:normal;text-align:start;line-height:125%;writing-mode:lr-tb;text-anchor:start;fill:#000;fill-opacity:1;stroke:none;stroke-width:1px;stroke-linecap:butt;stroke-linejoin:miter;stroke-opacity:1;font-family:sans" id="text1477" x="612.989" y="377.527" xml:space="preserve"><tspan style="font-size:28px;font-style:normal;font-variant:normal;font-weight:400;font-stretch:normal;text-align:start;line-height:125%;writing-mode:lr-tb;text-anchor:start;font-family:sans" id="tspan1479" x="612.989" y="377.527">Σ1</tspan></text><text style="font-size:28px;font-style:normal;font-variant:normal;font-weight:400;font-stretch:normal;text-align:start;line-height:125%;writing-mode:lr-tb;text-anchor:start;fill:#000;fill-opacity:1;stroke:none;stroke-width:1px;stroke-linecap:butt;stroke-linejoin:miter;stroke-opacity:1;font-family:sans" id="text1481" x="607.807" y="552.709" xml:space="preserve"><tspan style="font-size:28px;font-style:normal;font-variant:normal;font-weight:400;font-stretch:normal;text-align:start;line-height:125%;writing-mode:lr-tb;text-anchor:start;font-family:sans" id="tspan1483" x="607.807" y="552.709">Σ0</tspan></text><use id="use2445" width="850" height="550" x="0" y="0" transform="translate(445.95763,-112.32154)" xlink:href="#path1439"/><use id="use2449" width="850" height="550" x="0" y="0" transform="translate(446.03337,-42.450072)" xlink:href="#path1439"/><use id="use2451" width="850" height="550" x="0" y="0" transform="translate(446.03336,63.982717)" xlink:href="#path1439"/><use id="use2453" width="850" height="550" x="0" y="0" transform="translate(446.03336,132.88718)" xlink:href="#path1439"/><use id="use2455" width="850" height="550" x="0" y="0" transform="translate(522.93567,-112.58497)" xlink:href="#path1439"/><use id="use2782" width="850" height="550" x="0" y="0" transform="translate(0,69.116406)" xlink:href="#g2774"/><use id="use2784" width="850" height="550" x="0" y="0" transform="translate(0,175.36998)" xlink:href="#g2774"/><use id="use2786" width="850" height="550" x="0" y="0" transform="translate(0,245.51798)" xlink:href="#g2774"/><use id="use2788" width="850" height="550" x="0" y="0" transform="matrix(-1,0,0,1,1424.6824,0)" xlink:href="#g2774"/><use id="use4848" width="850" height="550" x="0" y="0" transform="translate(190.38462,0)" xlink:href="#g4840"/><use id="use4850" width="850" height="550" x="0" y="0" transform="translate(127.65252,0)" xlink:href="#g4840"/><use id="use4852" width="850" height="550" x="0" y="0" transform="translate(63.461538,0)" xlink:href="#g4840"/><use id="use4854" width="850" height="550" x="0" y="0" transform="translate(-64.190981,0)" xlink:href="#g4840"/><use id="use4856" width="850" height="550" x="0" y="0" transform="translate(-128.38196,0)" xlink:href="#g4840"/><use id="use4858" width="850" height="550" x="0" y="0" transform="translate(-192.57294,0)" xlink:href="#g4840"/></g><g id="g2669" transform="translate(-2.9177719,10.212202)"><text style="font-size:36px;font-style:normal;font-variant:normal;font-weight:400;font-stretch:normal;text-align:center;line-height:125%;writing-mode:lr-tb;text-anchor:middle;fill:#000;fill-opacity:1;stroke:none;stroke-width:1px;stroke-linecap:butt;stroke-linejoin:miter;stroke-opacity:1;font-family:sans" id="text2633" x="33.554" y="23.342" xml:space="preserve"><tspan id="tspan2635" x="33.554" y="23.342">A</tspan></text><text style="font-size:36px;font-style:normal;font-variant:normal;font-weight:400;font-stretch:normal;text-align:center;line-height:125%;writing-mode:lr-tb;text-anchor:middle;fill:#000;fill-opacity:1;stroke:none;stroke-width:1px;stroke-linecap:butt;stroke-linejoin:miter;stroke-opacity:1;font-family:sans" id="text2637" x="97.251" y="23.342" xml:space="preserve"><tspan id="tspan2639" x="97.251" y="23.342">B</tspan></text><text style="font-size:36px;font-style:normal;font-variant:normal;font-weight:400;font-stretch:normal;text-align:center;line-height:125%;writing-mode:lr-tb;text-anchor:middle;fill:#000;fill-opacity:1;stroke:none;stroke-width:1px;stroke-linecap:butt;stroke-linejoin:miter;stroke-opacity:1;font-family:sans" id="text2641" x="160.806" y="22.903" xml:space="preserve"><tspan id="tspan2643" x="160.806" y="22.903">C</tspan></text><text style="font-size:36px;font-style:normal;font-variant:normal;font-weight:400;font-stretch:normal;text-align:center;line-height:125%;writing-mode:lr-tb;text-anchor:middle;fill:#000;fill-opacity:1;stroke:none;stroke-width:1px;stroke-linecap:butt;stroke-linejoin:miter;stroke-opacity:1;font-family:sans" id="text2645" x="224.872" y="23.342" xml:space="preserve"><tspan id="tspan2647" x="224.872" y="23.342">D</tspan></text><text style="font-size:36px;font-style:normal;font-variant:normal;font-weight:400;font-stretch:normal;text-align:center;line-height:125%;writing-mode:lr-tb;text-anchor:middle;fill:#000;fill-opacity:1;stroke:none;stroke-width:1px;stroke-linecap:butt;stroke-linejoin:miter;stroke-opacity:1;font-family:sans" id="text2649" x="287.391" y="23.342" xml:space="preserve"><tspan id="tspan2651" x="287.391" y="23.342">E</tspan></text><text style="font-size:36px;font-style:normal;font-variant:normal;font-weight:400;font-stretch:normal;text-align:center;line-height:125%;writing-mode:lr-tb;text-anchor:middle;fill:#000;fill-opacity:1;stroke:none;stroke-width:1px;stroke-linecap:butt;stroke-linejoin:miter;stroke-opacity:1;font-family:sans" id="text2657" x="347.765" y="23.342" xml:space="preserve"><tspan id="tspan2659" x="347.765" y="23.342">F</tspan></text><text style="font-size:36px;font-style:normal;font-variant:normal;font-weight:400;font-stretch:normal;text-align:center;line-height:125%;writing-mode:lr-tb;text-anchor:middle;fill:#000;fill-opacity:1;stroke:none;stroke-width:1px;stroke-linecap:butt;stroke-linejoin:miter;stroke-opacity:1;font-family:sans" id="text2661" x="411.443" y="22.903" xml:space="preserve"><tspan id="tspan2663" x="411.443" y="22.903">G</tspan></text><text style="font-size:36px;font-style:normal;font-variant:normal;font-weight:400;font-stretch:normal;text-align:center;line-height:125%;writing-mode:lr-tb;text-anchor:middle;fill:#000;fill-opacity:1;stroke:none;stroke-width:1px;stroke-linecap:butt;stroke-linejoin:miter;stroke-opacity:1;font-family:sans" id="text2665" x="475.597" y="23.342" xml:space="preserve"><tspan id="tspan2667" x="475.597" y="23.342">H</tspan></text></g><use id="use2687" width="850" height="550" x="0" y="0" transform="translate(0,498.93899)" xlink:href="#g2669"/></g></g></svg>